<svg xmlns="http://www.w3.org/2000/svg" viewBox="0 0 287 287"><defs><style>.cls-1{fill:#fede00;}.cls-2{fill:#020100;}.cls-3{fill:#010100;}</style></defs><g id="Layer_2" data-name="Layer 2"><g id="Layer_1-2" data-name="Layer 1"><path class="cls-1" d="M143.54,287Q73,287,2.37,287C.59,287,0,286.83,0,284.77Q.11,143.47,0,2.16C0,.4.42,0,2.16,0Q143.48.1,284.78,0c2.07,0,2.21.61,2.21,2.38q-.08,141.17,0,282.33c0,1.92-.39,2.29-2.3,2.29Q214.13,286.9,143.54,287ZM220.69,130.3a46.15,46.15,0,0,0-12.24.91c-14.13,3.06-24.59,10.75-28.19,25.17s-.6,27.8,11,38.24c6.12,5.51,13.46,9,20.91,12.23,6.32,2.75,12.79,5.17,18.66,8.86,4.84,3,7.53,7.3,6.71,13.12s-4.74,9-10,10.47c-10.43,2.82-19.95,1.09-28-6.52a33.85,33.85,0,0,1-5.74-7.21c-.67-1.1-1.26-1.25-2.43-.56q-9.37,5.58-18.87,10.94c-1.52.86-1.28,1.56-.58,2.8,3.16,5.6,7.05,10.67,12.3,14.36,19.26,13.57,39.89,15,61.23,5.75a30.12,30.12,0,0,0,17.46-20.07c4.7-16.69.89-34-15.82-44.79-8.66-5.62-18.23-9.31-27.56-13.52-3.66-1.65-7.32-3.33-10.28-6.14-3.62-3.45-4.37-7.76-3.13-12.36s4.66-7.09,9.25-7.88c8.58-1.46,14.92,2,19.24,9.3.94,1.59,1.66,1.73,3.19.72,5.67-3.77,11.39-7.47,17.18-11,1.57-1,1.66-1.64.73-3.17C247.63,136.85,235.86,130.57,220.69,130.3Zm-64.36,50.23c0-15.4,0-30.81.06-46.21,0-2.11-.54-2.66-2.63-2.62-7.19.14-14.38.17-21.57,0-2.39-.06-2.87.66-2.86,2.94q.12,43.41,0,86.83a52.6,52.6,0,0,1-.47,7.53c-.67,4.65-2.48,8.59-7.31,10.38a16.45,16.45,0,0,1-19.46-5.65,48.41,48.41,0,0,1-3.64-5.64c-.73-1.33-1.34-1.36-2.57-.6q-9.27,5.73-18.67,11.28c-1.32.79-1.54,1.44-.81,2.81,4.14,7.67,9.76,13.86,17.57,17.88,9.66,5,20,5.89,30.52,4.39,12.47-1.78,22.34-7.58,27.82-19.45,3-6.56,4-13.57,4-20.72C156.36,209.29,156.33,194.91,156.33,180.53Z"/><path class="cls-2" d="M220.69,130.3c15.17.27,26.94,6.55,34.95,19.61.93,1.53.84,2.2-.73,3.17-5.79,3.57-11.51,7.27-17.18,11-1.53,1-2.25.87-3.19-.72-4.32-7.35-10.66-10.76-19.24-9.3-4.59.79-8,3.28-9.25,7.88s-.49,8.91,3.13,12.36c3,2.81,6.62,4.49,10.28,6.14,9.33,4.21,18.9,7.9,27.56,13.52,16.71,10.83,20.52,28.1,15.82,44.79a30.12,30.12,0,0,1-17.46,20.07c-21.34,9.25-42,7.82-61.23-5.75-5.25-3.69-9.14-8.76-12.3-14.36-.7-1.24-.94-1.94.58-2.8q9.49-5.34,18.87-10.94c1.17-.69,1.76-.54,2.43.56a33.85,33.85,0,0,0,5.74,7.21c8.08,7.61,17.6,9.34,28,6.52,5.29-1.43,9.22-4.7,10-10.47s-1.87-10.08-6.71-13.12c-5.87-3.69-12.34-6.11-18.66-8.86-7.45-3.26-14.79-6.72-20.91-12.23-11.59-10.44-14.63-23.68-11-38.24s14.06-22.11,28.19-25.17A46.15,46.15,0,0,1,220.69,130.3Z"/><path class="cls-3" d="M156.33,180.53c0,14.38,0,28.76,0,43.14,0,7.15-1,14.16-4,20.72-5.48,11.87-15.35,17.67-27.82,19.45-10.55,1.5-20.86.57-30.52-4.39-7.81-4-13.43-10.21-17.57-17.88-.73-1.37-.51-2,.81-2.81q9.41-5.53,18.67-11.28c1.23-.76,1.84-.73,2.57.6a48.41,48.41,0,0,0,3.64,5.64,16.45,16.45,0,0,0,19.46,5.65c4.83-1.79,6.64-5.73,7.31-10.38a52.6,52.6,0,0,0,.47-7.53q0-43.43,0-86.83c0-2.28.47-3,2.86-2.94,7.19.18,14.38.15,21.57,0,2.09,0,2.64.51,2.63,2.62C156.29,149.72,156.33,165.13,156.33,180.53Z"/></g></g></svg>